<svg viewBox="0 0 27 27" xmlns="http://www.w3.org/2000/svg" style="width: 34px;float: right;margin-top: 14px;margin-left: 16px;margin-right: -8px;"><g fill="#05bdb2" stroke-width=".2px" stroke="#05bdb2"> <path class="cls-1" d="m9 21.52c-2.59 1.68-5.15 3.35-7.72 5a2.72 2.72 0 0 1 -0.81 0.24 3.17 3.17 0 0 1 -0.21 -0.76q0-11.28 0-22.57a2.89 2.89 0 0 1 3.17 -3.18h11.19a2.86 2.86 0 0 1 3.08 3.11v5.15c2.89 0.59 4.62 2.26 4.55 5.28-0.05 2.49-1.53 3.93-4.55 4.78v0.66 6.85c0 0.24-0.06 0.6-0.21 0.67s-0.49-0.05-0.69-0.18c-2.6-1.66-5.18-3.34-7.8-5.05zm7.89-3c-3-0.81-4.52-2.45-4.54-5s1.41-4.14 4.57-5.08v-5a2.13 2.13 0 0 0 -2.41 -2.43h-11a2.12 2.12 0 0 0 -2.43 2.46q0 10.72 0 21.47v0.69l0.55-0.34c2.26-1.47 4.52-2.92 6.77-4.41a0.83 0.83 0 0 1 1.09 0c2.12 1.4 4.25 2.78 6.38 4.16l1 0.61zm4.59-5a4.16 4.16 0 1 0 -4.13 4.19 4.18 4.18 0 0 0 4.11 -4.18z"></path> <path d="M16.9,14A6.46,6.46,0,0,1,16,14c-.41-.07-1.15.27-1.14-.43s.75-.32,1.17-.39a6,6,0,0,1,.86,0,12.37,12.37,0,0,1,0-1.5c0-.2.24-.38.38-.56.13.18.36.35.38.55a12.35,12.35,0,0,1,0,1.51,8.07,8.07,0,0,1,1.31,0c.26,0,.71.23.72.38.05.52-.42.42-.75.43s-.8,0-1.28,0c0,.56,0,1,0,1.54,0,.18-.23.35-.35.52-.14-.17-.39-.34-.41-.53A12.81,12.81,0,0,1,16.9,14Z"></path></g></svg>