<svg xmlns="http://www.w3.org/2000/svg" viewBox="0 0 173.01 139.94">
	<path d="M24 4h11.9v4H24v11.85h15.86V0H24zm11.9 11.9H28v-4h7.93zM83.96 15.88h3.98v3.97h-3.98zM90.73 7.94h3.97v11.91h-3.97zM90.73 0h3.97v3.98h-3.97zM97.5 0v19.85h3.97V3.98h7.94V0H97.5zM42.66 19.85h3.97V3.98h3.95v15.87h3.98V3.98h3.97v15.87h3.97V0H42.66v19.85zM65.31 4H77.2v4H65.31v11.85h15.86V0H65.31zM77.2 15.88h-7.94v-4h7.94zM9.28 0h-4v19.85h15.9V4H9.28zm7.93 15.88H9.28V7.94h7.93z" fill="#878787"></path>
	<path d="M13.38 54.68a13.38 13.38 0 1013.37 13.38 13.39 13.39 0 00-13.37-13.38M13.38 83.94a13.37 13.37 0 1013.37 13.37 13.37 13.37 0 00-13.37-13.37M42.62 83.94A13.37 13.37 0 1056 97.31a13.38 13.38 0 00-13.38-13.37M42.62 54.68A13.38 13.38 0 1056 68.06a13.4 13.4 0 00-13.38-13.38M71.87 54.68a13.38 13.38 0 1013.38 13.38 13.4 13.4 0 00-13.38-13.38M130.38 81.43A13.38 13.38 0 10117 68.06a13.39 13.39 0 0013.37 13.37M143.76 97.31a13.38 13.38 0 10-13.38 13.37 13.39 13.39 0 0013.38-13.37M145 113.18a13.38 13.38 0 1013.37 13.38A13.39 13.39 0 00145 113.18M159.63 83.94A13.37 13.37 0 10173 97.31a13.38 13.38 0 00-13.38-13.37M71.87 83.94a13.37 13.37 0 1013.38 13.37 13.38 13.38 0 00-13.38-13.37M13.38 25.43a13.38 13.38 0 1013.37 13.38 13.39 13.39 0 00-13.37-13.38M130.38 52.18A13.38 13.38 0 10117 38.81a13.39 13.39 0 0013.37 13.37M42.62 25.43A13.38 13.38 0 1056 38.81a13.39 13.39 0 00-13.38-13.38m0 25.35a12 12 0 1112-12 12 12 0 01-12 12M71.87 25.43a13.38 13.38 0 1013.38 13.38 13.39 13.39 0 00-13.38-13.38m0 25.35a12 12 0 1112-12 12 12 0 01-12 12M101.14 25.43a13.38 13.38 0 1013.36 13.38 13.39 13.39 0 00-13.36-13.38m0 25.35a12 12 0 1112-12 12 12 0 01-12 12M159.63 52.18a13.38 13.38 0 10-13.38-13.37 13.39 13.39 0 0013.38 13.37m0-25.36a12 12 0 11-12 12 12 12 0 0112-12M159.63 54.68A13.38 13.38 0 10173 68.06a13.41 13.41 0 00-13.38-13.38m0 25.35a12 12 0 1112-12 12 12 0 01-12 12" fill="#8ce533"></path>
	<path d="M101.14 54.68a13.38 13.38 0 1013.36 13.38 13.4 13.4 0 00-13.36-13.38m0 25.35a12 12 0 1112-12 12 12 0 01-12 12" fill="#8ce533"></path>
	<path d="M101.14 83.94a13.37 13.37 0 1013.36 13.37 13.39 13.39 0 00-13.36-13.37m0 25.35a12 12 0 1112-12 12 12 0 01-12 12" fill="#8ce533"></path>
</svg>